<?xml version="1.0" standalone="yes"?>

<svg version="1.1" viewBox="0.0 0.0 341.51443569553805 335.5328083989501" fill="none" stroke="none" stroke-linecap="square" stroke-miterlimit="10" xmlns="http://www.w3.org/2000/svg" xmlns:xlink="http://www.w3.org/1999/xlink"><clipPath id="p.0"><path d="m0 0l341.51443 0l0 335.5328l-341.51443 0l0 -335.5328z" clip-rule="nonzero"></path></clipPath><g clip-path="url(#p.0)"><path fill="#000000" fill-opacity="0.0" d="m0 0l341.51443 0l0 335.5328l-341.51443 0z" fill-rule="evenodd"></path><path fill="#ffcc4c" d="m7.0335507 167.76575l0 0c0 -90.42254 73.30195 -163.72449 163.72449 -163.72449l0 0c43.422424 0 85.06639 17.249496 115.770706 47.953793c30.704285 30.704296 47.953766 72.34827 47.953766 115.77069l0 0c0 90.42255 -73.30194 163.72449 -163.72447 163.72449l0 0c-90.42254 0 -163.72449 -73.30194 -163.72449 -163.72449z" fill-rule="evenodd"></path><path stroke="#000000" stroke-width="2.0" stroke-linejoin="round" stroke-linecap="butt" d="m7.0335507 167.76575l0 0c0 -90.42254 73.30195 -163.72449 163.72449 -163.72449l0 0c43.422424 0 85.06639 17.249496 115.770706 47.953793c30.704285 30.704296 47.953766 72.34827 47.953766 115.77069l0 0c0 90.42255 -73.30194 163.72449 -163.72447 163.72449l0 0c-90.42254 0 -163.72449 -73.30194 -163.72449 -163.72449z" fill-rule="evenodd"></path><path fill="#ffcc4c" d="m34.109 167.76575l0 0c0 -74.52137 61.179855 -134.93288 136.64905 -134.93288l0 0c36.241577 0 70.998795 14.216103 96.62547 39.520924c25.626648 25.304825 40.02356 59.625534 40.02356 95.41196l0 0c0 74.52138 -61.179855 134.93289 -136.64903 134.93289l0 0c-75.469185 0 -136.64905 -60.411514 -136.64905 -134.93289z" fill-rule="evenodd"></path><path stroke="#7f5b00" stroke-width="3.0" stroke-linejoin="round" stroke-linecap="butt" d="m34.109 167.76575l0 0c0 -74.52137 61.179855 -134.93288 136.64905 -134.93288l0 0c36.241577 0 70.998795 14.216103 96.62547 39.520924c25.626648 25.304825 40.02356 59.625534 40.02356 95.41196l0 0c0 74.52138 -61.179855 134.93289 -136.64903 134.93289l0 0c-75.469185 0 -136.64905 -60.411514 -136.64905 -134.93289z" fill-rule="evenodd"></path><path fill="#fac84a" fill-opacity="0.8346" d="m221.98792 82.285385l0 82.31944l35.895752 13.064987l-14.017303 38.512268l-21.878448 -7.9631042l0 45.02713l-40.983902 0l0 -59.944046l-20.491943 -7.4584656l0 67.40251l-40.98391 0l0 -82.31943l-35.89576 -13.064987l14.017319 -38.512276l21.87844 7.9631042l0 -45.027138l40.98391 0l0 59.94406l20.491943 7.4584503l0 -67.40251z" fill-rule="evenodd"></path><path stroke="#000000" stroke-width="2.0" stroke-linejoin="round" stroke-linecap="butt" d="m221.98792 82.285385l0 82.31944l35.895752 13.064987l-14.017303 38.512268l-21.878448 -7.9631042l0 45.02713l-40.983902 0l0 -59.944046l-20.491943 -7.4584656l0 67.40251l-40.98391 0l0 -82.31943l-35.89576 -13.064987l14.017319 -38.512276l21.87844 7.9631042l0 -45.027138l40.98391 0l0 59.94406l20.491943 7.4584503l0 -67.40251z" fill-rule="evenodd"></path><path fill="#ffcc4c" d="m-381.37796 165.97928l0 0c0 -91.66782 74.31146 -165.97928 165.97928 -165.97928l0 0c44.020447 0 86.23793 17.487053 117.365074 48.614204c31.127151 31.127151 48.614204 73.34463 48.614204 117.365074l0 0c0 91.667816 -74.311455 165.97928 -165.97928 165.97928l0 0c-91.667816 0 -165.97928 -74.31146 -165.97928 -165.97928z" fill-rule="evenodd"></path><path stroke="#000000" stroke-width="2.0" stroke-linejoin="round" stroke-linecap="butt" d="m-381.37796 165.97928l0 0c0 -91.66782 74.31146 -165.97928 165.97928 -165.97928l0 0c44.020447 0 86.23793 17.487053 117.365074 48.614204c31.127151 31.127151 48.614204 73.34463 48.614204 117.365074l0 0c0 91.667816 -74.311455 165.97928 -165.97928 165.97928l0 0c-91.667816 0 -165.97928 -74.31146 -165.97928 -165.97928z" fill-rule="evenodd"></path><path fill="#ffcc4c" d="m-353.92963 165.97928l0 0c0 -75.547676 62.02243 -136.79115 138.53094 -136.79115l0 0c36.740692 0 71.97658 14.411882 97.95618 40.0652c25.979591 25.65332 40.574776 60.446693 40.574776 96.72596l0 0c0 75.54767 -62.022423 136.79114 -138.53094 136.79114l0 0c-76.508514 0 -138.53094 -61.24347 -138.53094 -136.79114z" fill-rule="evenodd"></path><path stroke="#7f5b00" stroke-width="3.0" stroke-linejoin="round" stroke-linecap="butt" d="m-353.92963 165.97928l0 0c0 -75.547676 62.02243 -136.79115 138.53094 -136.79115l0 0c36.740692 0 71.97658 14.411882 97.95618 40.0652c25.979591 25.65332 40.574776 60.446693 40.574776 96.72596l0 0c0 75.54767 -62.022423 136.79114 -138.53094 136.79114l0 0c-76.508514 0 -138.53094 -61.24347 -138.53094 -136.79114z" fill-rule="evenodd"></path><path fill="#fac84a" fill-opacity="0.8346" d="m-113.49657 165.97928l-41.121735 14.623856l0 -29.247726zm-29.853546 -72.05801l-18.731506 39.42193l-20.680984 -20.680984zm-72.04857 -29.844109l14.623871 41.121742l-29.247726 0zm-72.05798 29.844109l39.421906 18.740944l-20.68097 20.680984zm-29.844116 72.05801l41.121735 -14.623871l0 29.247726zm29.844116 72.04857l18.740936 -39.41249l20.68097 20.680984zm72.05798 29.85353l-14.623856 -41.121735l29.247726 0zm72.04857 -29.85353l-39.41249 -18.731506l20.680984 -20.680984zm-122.99962 -72.04857l0 0c0 -28.139496 22.81157 -50.951057 50.95105 -50.951057c28.139496 0 50.951065 22.811562 50.951065 50.951057c0 28.13948 -22.81157 50.95105 -50.951065 50.95105c-28.13948 0 -50.95105 -22.81157 -50.95105 -50.95105z" fill-rule="evenodd"></path><path stroke="#000000" stroke-width="2.0" stroke-linejoin="round" stroke-linecap="butt" d="m-113.49657 165.97928l-41.121735 14.623856l0 -29.247726zm-29.853546 -72.05801l-18.731506 39.42193l-20.680984 -20.680984zm-72.04857 -29.844109l14.623871 41.121742l-29.247726 0zm-72.05798 29.844109l39.421906 18.740944l-20.68097 20.680984zm-29.844116 72.05801l41.121735 -14.623871l0 29.247726zm29.844116 72.04857l18.740936 -39.41249l20.68097 20.680984zm72.05798 29.85353l-14.623856 -41.121735l29.247726 0zm72.04857 -29.85353l-39.41249 -18.731506l20.680984 -20.680984zm-122.99962 -72.04857l0 0c0 -28.139496 22.81157 -50.951057 50.95105 -50.951057c28.139496 0 50.951065 22.811562 50.951065 50.951057c0 28.13948 -22.81157 50.95105 -50.951065 50.95105c-28.13948 0 -50.95105 -22.81157 -50.95105 -50.95105z" fill-rule="evenodd"></path></g></svg>

