<?xml version="1.0" standalone="yes"?>

<svg version="1.1" viewBox="0.0 0.0 341.51443569553805 335.5328083989501" fill="none" stroke="none" stroke-linecap="square" stroke-miterlimit="10" xmlns="http://www.w3.org/2000/svg" xmlns:xlink="http://www.w3.org/1999/xlink"><clipPath id="p.0"><path d="m0 0l341.51443 0l0 335.5328l-341.51443 0l0 -335.5328z" clip-rule="nonzero"></path></clipPath><g clip-path="url(#p.0)"><path fill="#000000" fill-opacity="0.0" d="m0 0l341.51443 0l0 335.5328l-341.51443 0z" fill-rule="evenodd"></path><path fill="#ffcc4c" d="m608.06036 190.93176l0 0c0 -92.9317 75.336 -168.26772 168.2677 -168.26772l0 0c44.62738 0 87.42694 17.728155 118.98328 49.284477c31.556335 31.55632 49.284485 74.355865 49.284485 118.983246l0 0c0 92.9317 -75.33606 168.2677 -168.26776 168.2677l0 0c-92.9317 0 -168.2677 -75.336 -168.2677 -168.2677z" fill-rule="evenodd"></path><path stroke="#000000" stroke-width="2.0" stroke-linejoin="round" stroke-linecap="butt" d="m608.06036 190.93176l0 0c0 -92.9317 75.336 -168.26772 168.2677 -168.26772l0 0c44.62738 0 87.42694 17.728155 118.98328 49.284477c31.556335 31.55632 49.284485 74.355865 49.284485 118.983246l0 0c0 92.9317 -75.33606 168.2677 -168.26776 168.2677l0 0c-92.9317 0 -168.2677 -75.336 -168.2677 -168.2677z" fill-rule="evenodd"></path><path fill="#ffcc4c" d="m635.88715 190.93176l0 0c0 -76.58929 62.877563 -138.67717 140.44092 -138.67717l0 0c37.247253 0 72.968994 14.610588 99.30676 40.6176c26.337769 26.007019 41.134216 61.28009 41.134216 98.05957l0 0c0 76.589294 -62.877563 138.67715 -140.44098 138.67715l0 0c-77.563354 0 -140.44092 -62.08786 -140.44092 -138.67715z" fill-rule="evenodd"></path><path stroke="#7f5b00" stroke-width="3.0" stroke-linejoin="round" stroke-linecap="butt" d="m635.88715 190.93176l0 0c0 -76.58929 62.877563 -138.67717 140.44092 -138.67717l0 0c37.247253 0 72.968994 14.610588 99.30676 40.6176c26.337769 26.007019 41.134216 61.28009 41.134216 98.05957l0 0c0 76.589294 -62.877563 138.67715 -140.44098 138.67715l0 0c-77.563354 0 -140.44092 -62.08786 -140.44092 -138.67715z" fill-rule="evenodd"></path><path fill="#fac84a" fill-opacity="0.8346" d="m828.97955 103.079384l0 84.60374l36.891846 13.427536l-14.406311 39.580948l-22.485535 -8.184067l0 46.27661l-42.121155 0l0 -61.607468l-21.060608 -7.665436l0 69.2729l-42.121155 0l0 -84.603745l-36.891846 -13.427536l14.40625 -39.580948l22.485596 8.184067l0 -46.276604l42.121155 0l0 61.60746l21.060608 7.6654205l0 -69.27288z" fill-rule="evenodd"></path><path stroke="#000000" stroke-width="2.0" stroke-linejoin="round" stroke-linecap="butt" d="m828.97955 103.079384l0 84.60374l36.891846 13.427536l-14.406311 39.580948l-22.485535 -8.184067l0 46.27661l-42.121155 0l0 -61.607468l-21.060608 -7.665436l0 69.2729l-42.121155 0l0 -84.603745l-36.891846 -13.427536l14.40625 -39.580948l22.485596 8.184067l0 -46.276604l42.121155 0l0 61.60746l21.060608 7.6654205l0 -69.27288z" fill-rule="evenodd"></path><path fill="#ffcc4c" d="m4.7769027 167.76668l0 0c0 -91.66782 74.311455 -165.97928 165.97928 -165.97928l0 0c44.020447 0 86.23793 17.487053 117.36507 48.614204c31.127167 31.127148 48.614197 73.344635 48.614197 117.36507l0 0c0 91.66783 -74.31143 165.97926 -165.97926 165.97926l0 0c-91.66782 0 -165.97928 -74.31143 -165.97928 -165.97926z" fill-rule="evenodd"></path><path stroke="#000000" stroke-width="2.0" stroke-linejoin="round" stroke-linecap="butt" d="m4.7769027 167.76668l0 0c0 -91.66782 74.311455 -165.97928 165.97928 -165.97928l0 0c44.020447 0 86.23793 17.487053 117.36507 48.614204c31.127167 31.127148 48.614197 73.344635 48.614197 117.36507l0 0c0 91.66783 -74.31143 165.97926 -165.97926 165.97926l0 0c-91.66782 0 -165.97928 -74.31143 -165.97928 -165.97926z" fill-rule="evenodd"></path><path fill="#ffcc4c" d="m32.22523 167.76668l0 0c0 -75.54767 62.02242 -136.79115 138.53094 -136.79115l0 0c36.740692 0 71.97658 14.411884 97.95616 40.065205c25.979614 25.653313 40.5748 60.446686 40.5748 96.72595l0 0c0 75.54767 -62.02243 136.79115 -138.53096 136.79115l0 0c-76.50853 0 -138.53094 -61.243484 -138.53094 -136.79115z" fill-rule="evenodd"></path><path stroke="#7f5b00" stroke-width="3.0" stroke-linejoin="round" stroke-linecap="butt" d="m32.22523 167.76668l0 0c0 -75.54767 62.02242 -136.79115 138.53094 -136.79115l0 0c36.740692 0 71.97658 14.411884 97.95616 40.065205c25.979614 25.653313 40.5748 60.446686 40.5748 96.72595l0 0c0 75.54767 -62.02243 136.79115 -138.53096 136.79115l0 0c-76.50853 0 -138.53094 -61.243484 -138.53094 -136.79115z" fill-rule="evenodd"></path><path fill="#fac84a" fill-opacity="0.8346" d="m272.6583 167.76668l-41.12175 14.623856l0 -29.247711zm-29.853546 -72.058l-18.731506 39.42192l-20.680984 -20.680984zm-72.04857 -29.844109l14.623856 41.121735l-29.247711 0zm-72.05801 29.844109l39.42193 18.740936l-20.680984 20.680984zm-29.844109 72.058l41.121742 -14.623856l0 29.247711zm29.844109 72.04857l18.740944 -39.41249l20.680984 20.680984zm72.05801 29.853546l-14.623856 -41.12175l29.247711 0zm72.04857 -29.853546l-39.41249 -18.731506l20.680984 -20.680984zm-122.999626 -72.04857l0 0c0 -28.139496 22.811562 -50.951057 50.951057 -50.951057c28.139496 0 50.95105 22.811562 50.95105 50.951057c0 28.139496 -22.811554 50.95105 -50.95105 50.95105c-28.139496 0 -50.951057 -22.811554 -50.951057 -50.95105z" fill-rule="evenodd"></path><path stroke="#000000" stroke-width="2.0" stroke-linejoin="round" stroke-linecap="butt" d="m272.6583 167.76668l-41.12175 14.623856l0 -29.247711zm-29.853546 -72.058l-18.731506 39.42192l-20.680984 -20.680984zm-72.04857 -29.844109l14.623856 41.121735l-29.247711 0zm-72.05801 29.844109l39.42193 18.740936l-20.680984 20.680984zm-29.844109 72.058l41.121742 -14.623856l0 29.247711zm29.844109 72.04857l18.740944 -39.41249l20.680984 20.680984zm72.05801 29.853546l-14.623856 -41.12175l29.247711 0zm72.04857 -29.853546l-39.41249 -18.731506l20.680984 -20.680984zm-122.999626 -72.04857l0 0c0 -28.139496 22.811562 -50.951057 50.951057 -50.951057c28.139496 0 50.95105 22.811562 50.95105 50.951057c0 28.139496 -22.811554 50.95105 -50.95105 50.95105c-28.139496 0 -50.951057 -22.811554 -50.951057 -50.95105z" fill-rule="evenodd"></path></g></svg>

